<svg width="16" height="16" viewBox="0 0 16 16" fill="none" xmlns="http://www.w3.org/2000/svg">
<path d="M4.01838 12.5335C3.36886 12.5335 2.79289 12.4225 2.29048 12.2005C1.79084 11.9756 1.39669 11.6661 1.10801 11.272C0.819333 10.8778 0.672218 10.424 0.666667 9.91046H2.74015C2.74848 10.0964 2.80816 10.2616 2.91919 10.4059C3.03022 10.5475 3.18149 10.6585 3.37302 10.739C3.56455 10.8195 3.78244 10.8598 4.02671 10.8598C4.27098 10.8598 4.4861 10.8167 4.67207 10.7307C4.86082 10.6419 5.00794 10.5211 5.11342 10.3685C5.21889 10.213 5.27024 10.0354 5.26747 9.83552C5.27024 9.63566 5.21334 9.45802 5.09676 9.30258C4.98018 9.14713 4.81502 9.02639 4.60129 8.94034C4.39033 8.85429 4.14052 8.81127 3.85184 8.81127H3.02328V7.34567H3.85184C4.10443 7.34567 4.32649 7.30404 4.51802 7.22076C4.71232 7.13749 4.8636 7.02091 4.97185 6.87102C5.08011 6.71835 5.13285 6.54348 5.13007 6.3464C5.13285 6.15488 5.08705 5.98694 4.99267 5.84261C4.90107 5.69549 4.772 5.58168 4.60545 5.50119C4.44168 5.42069 4.25155 5.38044 4.03504 5.38044C3.80743 5.38044 3.60063 5.42069 3.41466 5.50119C3.23146 5.58168 3.08573 5.69549 2.97748 5.84261C2.86922 5.98972 2.81232 6.16043 2.80677 6.35473H0.837375C0.842927 5.84677 0.98449 5.39987 1.26206 5.01404C1.53964 4.62544 1.91714 4.3215 2.39457 4.10221C2.87477 3.88293 3.4216 3.77328 4.03504 3.77328C4.6457 3.77328 5.18281 3.88015 5.64636 4.09388C6.10991 4.30762 6.47076 4.59907 6.7289 4.96824C6.98704 5.33464 7.11612 5.74962 7.11612 6.21317C7.11889 6.69337 6.96206 7.08892 6.64563 7.3998C6.33197 7.71068 5.9281 7.90221 5.43401 7.97438V8.041C6.09464 8.11872 6.59289 8.33245 6.92875 8.6822C7.2674 9.03194 7.43533 9.46912 7.43255 9.99374C7.43255 10.4878 7.28683 10.9264 6.99537 11.3094C6.70669 11.6897 6.30421 11.9895 5.78792 12.2088C5.27441 12.4253 4.68456 12.5335 4.01838 12.5335Z" fill="#727279"/>
<path d="M11.1239 12.417H7.97205V3.88987H11.1197C11.9886 3.88987 12.7366 4.06058 13.3639 4.40199C13.994 4.74063 14.4798 5.22916 14.8212 5.86759C15.1626 6.50323 15.3333 7.26379 15.3333 8.14925C15.3333 9.03749 15.1626 9.80082 14.8212 10.4392C14.4826 11.0777 13.9982 11.5676 13.3681 11.909C12.738 12.2476 11.9899 12.417 11.1239 12.417ZM10.033 10.6599H11.0448C11.5222 10.6599 11.9261 10.5794 12.2564 10.4184C12.5895 10.2547 12.8407 9.98957 13.01 9.62317C13.1821 9.254 13.2682 8.76269 13.2682 8.14925C13.2682 7.53581 13.1821 7.04728 13.01 6.68366C12.8379 6.31726 12.584 6.05356 12.2481 5.89257C11.915 5.7288 11.5042 5.64691 11.0157 5.64691H10.033V10.6599Z" fill="#727279"/>
</svg>
