<svg width="20" height="20" viewBox="0 0 20 20" fill="none" xmlns="http://www.w3.org/2000/svg">
<path d="M17.3172 10.0258L11.6922 15.6508C11.5749 15.7681 11.4159 15.8339 11.25 15.8339C11.0841 15.8339 10.9251 15.7681 10.8078 15.6508C10.6905 15.5335 10.6247 15.3745 10.6247 15.2086C10.6247 15.0427 10.6905 14.8837 10.8078 14.7664L15.3664 10.2086H3.125C2.95924 10.2086 2.80027 10.1428 2.68306 10.0255C2.56585 9.90833 2.5 9.74936 2.5 9.5836C2.5 9.41784 2.56585 9.25887 2.68306 9.14166C2.80027 9.02445 2.95924 8.9586 3.125 8.9586H15.3664L10.8078 4.40079C10.6905 4.28351 10.6247 4.12445 10.6247 3.9586C10.6247 3.79275 10.6905 3.63369 10.8078 3.51641C10.9251 3.39914 11.0841 3.33325 11.25 3.33325C11.4159 3.33325 11.5749 3.39914 11.6922 3.51641L17.3172 9.14141C17.3753 9.19946 17.4214 9.26839 17.4529 9.34426C17.4843 9.42014 17.5005 9.50146 17.5005 9.5836C17.5005 9.66573 17.4843 9.74706 17.4529 9.82294C17.4214 9.89881 17.3753 9.96774 17.3172 10.0258Z" fill="white"/>
</svg>
