<svg width="20" height="20" viewBox="0 0 20 20" fill="none" xmlns="http://www.w3.org/2000/svg">
<path d="M17.5005 9.5836C17.5005 9.74936 17.4346 9.90833 17.3174 10.0255C17.2002 10.1428 17.0413 10.2086 16.8755 10.2086H4.63409L9.19268 14.7664C9.25075 14.8245 9.29681 14.8934 9.32824 14.9693C9.35966 15.0452 9.37584 15.1265 9.37584 15.2086C9.37584 15.2907 9.35966 15.372 9.32824 15.4479C9.29681 15.5238 9.25075 15.5927 9.19268 15.6508C9.13461 15.7089 9.06567 15.7549 8.9898 15.7863C8.91393 15.8178 8.83261 15.8339 8.75049 15.8339C8.66837 15.8339 8.58705 15.8178 8.51118 15.7863C8.43531 15.7549 8.36637 15.7089 8.3083 15.6508L2.6833 10.0258C2.62519 9.96774 2.57909 9.89881 2.54764 9.82294C2.51619 9.74706 2.5 9.66573 2.5 9.5836C2.5 9.50146 2.51619 9.42014 2.54764 9.34426C2.57909 9.26839 2.62519 9.19946 2.6833 9.14141L8.3083 3.51641C8.42558 3.39914 8.58464 3.33325 8.75049 3.33325C8.91634 3.33325 9.0754 3.39914 9.19268 3.51641C9.30995 3.63369 9.37584 3.79275 9.37584 3.9586C9.37584 4.12445 9.30995 4.28351 9.19268 4.40079L4.63409 8.9586H16.8755C17.0413 8.9586 17.2002 9.02445 17.3174 9.14166C17.4346 9.25887 17.5005 9.41784 17.5005 9.5836Z" fill="#121216"/>
</svg>
