<svg width="12" height="16" viewBox="0 0 12 16" fill="none" xmlns="http://www.w3.org/2000/svg">
<path d="M9.77295 9.64799C9.72069 9.70043 9.65859 9.74204 9.59022 9.77043C9.52185 9.79882 9.44854 9.81343 9.37451 9.81343C9.30048 9.81343 9.22717 9.79882 9.1588 9.77043C9.09043 9.74204 9.02833 9.70043 8.97607 9.64799L6.56248 7.23439V14.125C6.56248 14.2742 6.50322 14.4173 6.39773 14.5228C6.29224 14.6283 6.14916 14.6875 5.99998 14.6875C5.8508 14.6875 5.70772 14.6283 5.60223 14.5228C5.49674 14.4173 5.43748 14.2742 5.43748 14.125V7.23439L3.02295 9.64799C2.91728 9.75366 2.77395 9.81303 2.62451 9.81303C2.47507 9.81303 2.33175 9.75366 2.22607 9.64799C2.1204 9.54232 2.06104 9.39899 2.06104 9.24955C2.06104 9.10011 2.1204 8.95679 2.22607 8.85111L5.60107 5.47611C5.65333 5.42367 5.71543 5.38206 5.7838 5.35367C5.85217 5.32528 5.92548 5.31067 5.99951 5.31067C6.07354 5.31067 6.14685 5.32528 6.21522 5.35367C6.28359 5.38206 6.34569 5.42367 6.39795 5.47611L9.77295 8.85111C9.82539 8.90337 9.867 8.96547 9.89539 9.03384C9.92378 9.10221 9.93839 9.17552 9.93839 9.24955C9.93839 9.32358 9.92378 9.39689 9.89539 9.46526C9.867 9.53363 9.82539 9.59573 9.77295 9.64799Z" fill="#F79009"/>
</svg>
