<svg width="20" height="20" viewBox="0 0 20 20" fill="none" xmlns="http://www.w3.org/2000/svg">
  <path fill="#727279" d="M5.833 9.308 9.167 7.592a1.81 1.81 0 0 1 .833-.2c.31-.002.616.073.892.216l3.333 1.667 1.367.708-.459-3.175a2.324 2.324 0 0 0-.833-1.247 2.324 2.324 0 0 0-1.442-.419h-.833v-1.15a1.017 1.017 0 0 0-.344-.624 1.017 1.017 0 0 0-.681-.21H9.008a1.017 1.017 0 0 0-.681.21 1.017 1.017 0 0 0-.344.624v1.166H7.15a2.324 2.324 0 0 0-1.441.419 2.324 2.324 0 0 0-.834 1.248L4.433 10l.834-.433.566-.259ZM9.267 4.375H10.8v.742H9.233l.034-.742Z"/>
  <path fill="#727279" d="M3.525 14.167c.296.117.576.271.833.458.259.167.275.183.484.183.131.013.262-.026.366-.108l.109-.075c.192-.136.395-.256.608-.358a3.435 3.435 0 0 1 1.492-.317c.752-.01 1.487.227 2.091.675.25.167.275.183.475.183.2 0 .217 0 .475-.183a3.43 3.43 0 0 1 2.092-.675 3.4 3.4 0 0 1 1.342.25l.133.058c.216.104.422.227.617.367l.1.067a.518.518 0 0 0 .375.116c.2 0 .225 0 .475-.183.258-.187.538-.34.833-.458l.65-1.192c.07-.126.113-.264.129-.407.016-.143.003-.288-.037-.426a1.033 1.033 0 0 0-.517-.6l-.983-.508-1.375-.708-3.8-1.992a1.067 1.067 0 0 0-.959 0l-3.875 1.992-1.366.708-.959.5a1.031 1.031 0 0 0-.525.625 1.02 1.02 0 0 0 .083.784l.634 1.225Z"/>
  <path fill="#727279" d="M17.708 14.767a2.616 2.616 0 0 0-1.666.533c-.105.077-.217.144-.334.2a1.32 1.32 0 0 1-.6.125 1.43 1.43 0 0 1-.75-.208l-.183-.117a2.747 2.747 0 0 0-1.633-.534c-.587 0-1.16.187-1.634.534a1.506 1.506 0 0 1-1.875 0 2.616 2.616 0 0 0-1.666-.533 2.606 2.606 0 0 0-1.667.533l-.192.125a1.418 1.418 0 0 1-.75.2 1.37 1.37 0 0 1-.608-.125 1.706 1.706 0 0 1-.333-.192 2.616 2.616 0 0 0-1.667-.533.625.625 0 1 0 0 1.25c.343-.009.678.106.942.325.48.36 1.067.548 1.666.533.6.015 1.187-.173 1.667-.533.263-.22.598-.336.942-.325.34-.01.672.106.933.325.48.36 1.067.548 1.667.533.6.019 1.188-.17 1.666-.533.265-.217.6-.333.942-.325.34-.01.672.106.933.325.474.347 1.046.534 1.634.534.587 0 1.159-.187 1.633-.534.261-.219.593-.334.933-.325a.625.625 0 1 0 0-1.25v-.008Z"/>
</svg>
