<svg width="20" height="20" viewBox="0 0 20 20" fill="none" xmlns="http://www.w3.org/2000/svg">
<path d="M5.14406 12.0044L5.14488 12.0052L4.07635 12.5562L5.57294 15.3011C5.59409 15.3399 5.61033 15.38 5.62258 15.4207C5.68285 15.3841 5.74475 15.345 5.81057 15.3011C6.1627 15.0663 6.61151 14.7665 7.44143 14.7664C8.27136 14.7664 8.72046 15.0658 9.07229 15.3011C9.36205 15.4949 9.55509 15.625 10.0082 15.625C10.4614 15.625 10.6542 15.4949 10.944 15.3011C11.2959 15.0658 11.7448 14.7665 12.5749 14.7664C13.4049 14.7664 13.8539 15.0658 14.2057 15.3011C14.2662 15.3415 14.3231 15.3783 14.3783 15.4126C14.3902 15.3747 14.4058 15.3373 14.4255 15.3011L15.0106 15.6201H15.0122L14.4255 15.3011L15.9221 12.5562L14.8552 12.0052L9.99921 9.50765L5.14406 12.0044ZM7.16636 6.41683C6.49534 6.41683 6.15826 6.79424 6.12632 7.02067V7.0223L5.64699 10.341L9.53046 8.34391C9.72713 8.23706 9.92901 8.23324 9.99921 8.23324C10.146 8.23324 10.3182 8.26867 10.4623 8.34066L10.4688 8.34391L14.3417 10.3353L13.8648 7.02799C13.8278 6.78966 13.4878 6.41692 12.8247 6.41683H7.16636ZM9.2326 5.12533H10.7658V4.375H9.2326V5.12533ZM12.0158 5.16683H12.8247C13.7963 5.16691 14.8029 5.70291 15.0594 6.64469L15.1009 6.83838L15.1017 6.84408L15.7056 11.0376L16.7025 11.5527L16.7017 11.5535C16.9271 11.665 17.0866 11.8557 17.1745 12.0548L17.2087 12.1444L17.2136 12.1582C17.2876 12.399 17.282 12.6862 17.1306 12.9484L17.1314 12.9492L15.7373 15.5046C15.8509 15.4507 15.9561 15.3823 16.0775 15.3011C16.4293 15.0658 16.8783 14.7664 17.7084 14.7664C18.0535 14.7664 18.3332 15.0464 18.3334 15.3914C18.3334 15.7366 18.0535 16.0164 17.7084 16.0164C17.2551 16.0164 17.0623 16.1465 16.7725 16.3403C16.4206 16.5757 15.9717 16.875 15.1416 16.875C14.3116 16.875 13.8626 16.5757 13.5108 16.3403C13.221 16.1465 13.0281 16.0164 12.5749 16.0164C12.1218 16.0165 11.9288 16.1465 11.639 16.3403C11.2872 16.5757 10.8382 16.875 10.0082 16.875C9.17817 16.875 8.72913 16.5756 8.3773 16.3403C8.08759 16.1466 7.89454 16.0164 7.44143 16.0164C6.98836 16.0165 6.79545 16.1468 6.50393 16.3411C6.15012 16.577 5.69956 16.875 4.86656 16.875C4.0367 16.875 3.58782 16.5759 3.2357 16.3411C2.94578 16.1479 2.75021 16.0164 2.29169 16.0164C1.94651 16.0164 1.66669 15.7366 1.66669 15.3914C1.66681 15.0464 1.94659 14.7664 2.29169 14.7664C3.12483 14.7664 3.57523 15.0652 3.92906 15.3011C4.04669 15.3795 4.14873 15.4466 4.25783 15.4997L2.86705 12.9492C2.73024 12.6978 2.72035 12.4154 2.77671 12.1899L2.78973 12.1444C2.86616 11.9151 3.03794 11.6817 3.29673 11.5535L3.29592 11.5527L4.28306 11.0425L4.88853 6.8457C5.04009 5.77232 6.13748 5.16683 7.16636 5.16683H7.9826V3.99984C7.98268 3.63119 8.22762 3.40031 8.39357 3.2959C8.57606 3.1812 8.7943 3.125 9.008 3.125H10.9912C11.1956 3.12501 11.4127 3.17492 11.5991 3.28939C11.7782 3.39936 12.0157 3.63302 12.0158 3.99984V5.16683Z" fill="#727279"/>
</svg>
