<svg width="20" height="20" viewBox="0 0 20 20" fill="none" xmlns="http://www.w3.org/2000/svg">
<path d="M16.9009 6.90085L10.6509 13.1508C10.5929 13.209 10.5239 13.2551 10.4481 13.2865C10.3722 13.318 10.2909 13.3342 10.2087 13.3342C10.1266 13.3342 10.0453 13.318 9.96938 13.2865C9.89351 13.2551 9.82458 13.209 9.76653 13.1508L3.51653 6.90085C3.39926 6.78357 3.33337 6.62451 3.33337 6.45866C3.33337 6.29281 3.39926 6.13375 3.51653 6.01647C3.63381 5.8992 3.79287 5.83331 3.95872 5.83331C4.12457 5.83331 4.28363 5.8992 4.40091 6.01647L10.2087 11.8251L16.0165 6.01647C16.0746 5.9584 16.1435 5.91234 16.2194 5.88091C16.2953 5.84949 16.3766 5.83331 16.4587 5.83331C16.5408 5.83331 16.6222 5.84949 16.698 5.88091C16.7739 5.91234 16.8428 5.9584 16.9009 6.01647C16.959 6.07454 17.005 6.14348 17.0365 6.21935C17.0679 6.29522 17.0841 6.37654 17.0841 6.45866C17.0841 6.54078 17.0679 6.6221 17.0365 6.69797C17.005 6.77384 16.959 6.84278 16.9009 6.90085Z" fill="#727279"/>
</svg>
