<svg width="16" height="16" viewBox="0 0 16 16" fill="none" xmlns="http://www.w3.org/2000/svg">
<path d="M12.5207 11.8132C12.5672 11.8596 12.604 11.9148 12.6292 11.9755C12.6543 12.0362 12.6672 12.1012 12.6672 12.1669C12.6672 12.2326 12.6543 12.2977 12.6292 12.3584C12.604 12.419 12.5672 12.4742 12.5207 12.5207C12.4743 12.5671 12.4191 12.604 12.3584 12.6291C12.2977 12.6542 12.2327 12.6672 12.167 12.6672C12.1013 12.6672 12.0362 12.6542 11.9755 12.6291C11.9148 12.604 11.8597 12.5671 11.8132 12.5207L7.66697 8.37378L3.52071 12.5207C3.42689 12.6145 3.29965 12.6672 3.16697 12.6672C3.03428 12.6672 2.90704 12.6145 2.81322 12.5207C2.71939 12.4268 2.66669 12.2996 2.66669 12.1669C2.66669 12.0342 2.71939 11.907 2.81322 11.8132L6.96009 7.6669L2.81322 3.52065C2.71939 3.42683 2.66669 3.29959 2.66669 3.1669C2.66669 3.03422 2.71939 2.90697 2.81322 2.81315C2.90704 2.71933 3.03428 2.66663 3.16697 2.66663C3.29965 2.66663 3.42689 2.71933 3.52071 2.81315L7.66697 6.96003L11.8132 2.81315C11.907 2.71933 12.0343 2.66663 12.167 2.66663C12.2996 2.66663 12.4269 2.71933 12.5207 2.81315C12.6145 2.90697 12.6672 3.03422 12.6672 3.1669C12.6672 3.29959 12.6145 3.42683 12.5207 3.52065L8.37384 7.6669L12.5207 11.8132Z" fill="#727279"/>
</svg>
