<svg width="16" height="16" viewBox="0 0 16 16" fill="none" xmlns="http://www.w3.org/2000/svg">
<path fill-rule="evenodd" clip-rule="evenodd" d="M2.38239 13.5331H6.1333L2.39974 13.5332L2.38239 13.5331ZM14.5332 3.39975L14.533 6.13331V3.3824L14.5332 3.39975Z" fill="#121216"/>
<path fill-rule="evenodd" clip-rule="evenodd" d="M6.1333 13.5331H2.38239L2.39974 13.5332L6.1333 13.5331ZM14.533 6.13331L14.5332 3.39975L14.533 3.3824V6.13331Z" fill="#727279"/>
<path d="M2.38239 13.5331H6.1333V10.6665C6.1333 10.372 6.37195 10.1333 6.6665 10.1333C6.96106 10.1333 7.19971 10.372 7.19971 10.6665V13.5332H13.6003C14.1155 13.5331 14.5331 13.1155 14.5332 12.6003L14.533 12.4666V7.19972H11.9998C11.7053 7.19972 11.4666 6.96107 11.4666 6.66651C11.4666 6.37196 11.7053 6.13331 11.9998 6.13331H14.533V3.3824C14.5237 2.87515 14.1097 2.46695 13.6003 2.46681L7.19971 2.46667V6.13331H7.99984C8.29439 6.13331 8.53304 6.37196 8.53304 6.66651C8.53304 6.96107 8.29439 7.19972 7.99984 7.19972H7.19971V7.99985C7.19971 8.2944 6.96106 8.53305 6.6665 8.53305C6.37195 8.53305 6.1333 8.2944 6.1333 7.99985V2.46664L2.39974 2.46681C1.88448 2.46695 1.46694 2.88449 1.4668 3.39975V12.6003C1.46694 13.1097 1.87514 13.5237 2.38239 13.5331Z" fill="#727279"/>
</svg>
