<svg width="20" height="20" viewBox="0 0 20 20" fill="none" xmlns="http://www.w3.org/2000/svg">
<path fill-rule="evenodd" clip-rule="evenodd" d="M5.71648 2.86658C5.11166 2.86658 4.62482 3.35342 4.62482 3.95824V15.9499C4.62482 16.5547 5.11166 17.0416 5.71648 17.0416H14.2832C14.8759 17.0416 15.3682 16.5579 15.3748 15.9469V3.95824C15.3748 3.35342 14.888 2.86658 14.2832 2.86658H5.71648ZM3.37482 3.95824C3.37482 2.66306 4.4213 1.61658 5.71648 1.61658H14.2832C15.5784 1.61658 16.6248 2.66306 16.6248 3.95824V15.9554C16.6135 17.2433 15.573 18.2916 14.2832 18.2916H5.71648C4.4213 18.2916 3.37482 17.2451 3.37482 15.9499V3.95824ZM5.94984 5.71646C5.94984 5.37128 6.22966 5.09146 6.57484 5.09146H7.43317C7.77835 5.09146 8.05817 5.37128 8.05817 5.71646C8.05817 6.06164 7.77835 6.34146 7.43317 6.34146H6.57484C6.22966 6.34146 5.94984 6.06164 5.94984 5.71646ZM9.37483 5.71646C9.37483 5.37128 9.65465 5.09146 9.99983 5.09146H13.4248C13.77 5.09146 14.0498 5.37128 14.0498 5.71646C14.0498 6.06164 13.77 6.34146 13.4248 6.34146H9.99983C9.65465 6.34146 9.37483 6.06164 9.37483 5.71646ZM5.94984 9.99991C5.94984 9.65473 6.22966 9.37491 6.57484 9.37491H7.43317C7.77835 9.37491 8.05817 9.65473 8.05817 9.99991C8.05817 10.3451 7.77835 10.6249 7.43317 10.6249H6.57484C6.22966 10.6249 5.94984 10.3451 5.94984 9.99991ZM9.37483 9.99991C9.37483 9.65473 9.65465 9.37491 9.99983 9.37491H13.4248C13.77 9.37491 14.0498 9.65473 14.0498 9.99991C14.0498 10.3451 13.77 10.6249 13.4248 10.6249H9.99983C9.65465 10.6249 9.37483 10.3451 9.37483 9.99991ZM5.94984 14.2834C5.94984 13.9382 6.22966 13.6584 6.57484 13.6584H7.43317C7.77835 13.6584 8.05817 13.9382 8.05817 14.2834C8.05817 14.6285 7.77835 14.9084 7.43317 14.9084H6.57484C6.22966 14.9084 5.94984 14.6285 5.94984 14.2834ZM9.37483 14.2834C9.37483 13.9382 9.65465 13.6584 9.99983 13.6584H13.4248C13.77 13.6584 14.0498 13.9382 14.0498 14.2834C14.0498 14.6285 13.77 14.9084 13.4248 14.9084H9.99983C9.65465 14.9084 9.37483 14.6285 9.37483 14.2834Z" fill="#727279"/>
</svg>
