<svg width="20" height="20" viewBox="0 0 20 20" fill="none" xmlns="http://www.w3.org/2000/svg">
<path d="M7.70831 12.5C7.70831 12.3849 7.61504 12.2917 7.49998 12.2917H4.16665C4.05159 12.2917 3.95831 12.3849 3.95831 12.5V15.8333C3.95831 15.9484 4.05159 16.0417 4.16665 16.0417H7.49998C7.61504 16.0417 7.70831 15.9484 7.70831 15.8333V12.5ZM16.0416 14.1667C16.0416 13.1311 15.2022 12.2917 14.1666 12.2917C13.1311 12.2917 12.2916 13.1311 12.2916 14.1667C12.2916 15.2022 13.1311 16.0417 14.1666 16.0417C15.2022 16.0417 16.0416 15.2022 16.0416 14.1667ZM9.99998 1.875C10.2243 1.875 10.4315 1.99521 10.5428 2.18994L13.8761 8.02328C13.9866 8.21663 13.9854 8.45402 13.8737 8.64665C13.7619 8.83934 13.5561 8.95833 13.3333 8.95833H6.66665C6.44385 8.95833 6.23811 8.83934 6.12628 8.64665C6.01459 8.45402 6.01339 8.21663 6.12384 8.02328L9.45717 2.18994C9.56845 1.99521 9.77569 1.875 9.99998 1.875ZM7.74412 7.70833H12.2558L9.99998 3.75977L7.74412 7.70833ZM17.2916 14.1667C17.2916 15.8926 15.8925 17.2917 14.1666 17.2917C12.4408 17.2917 11.0416 15.8926 11.0416 14.1667C11.0416 12.4408 12.4408 11.0417 14.1666 11.0417C15.8925 11.0417 17.2916 12.4408 17.2916 14.1667ZM8.95831 15.8333C8.95831 16.6387 8.30539 17.2917 7.49998 17.2917H4.16665C3.36123 17.2917 2.70831 16.6387 2.70831 15.8333V12.5C2.70831 11.6946 3.36123 11.0417 4.16665 11.0417H7.49998C8.30539 11.0417 8.95831 11.6946 8.95831 12.5V15.8333Z" fill="#727279"/>
</svg>
