<svg width="16" height="16" viewBox="0 0 16 16" fill="none" xmlns="http://www.w3.org/2000/svg">
<path d="M15.8937 6.74438L14.2987 3.55313C14.24 3.43567 14.1587 3.33094 14.0594 3.24491C13.9602 3.15888 13.845 3.09324 13.7204 3.05175C13.5958 3.01025 13.4642 2.99371 13.3332 3.00306C13.2022 3.01241 13.0743 3.04748 12.9569 3.10625L11.4025 3.88313L8.12812 3.01688C8.04411 2.99501 7.95589 2.99501 7.87187 3.01688L4.5975 3.88313L3.04312 3.10625C2.92568 3.04748 2.7978 3.01241 2.6668 3.00306C2.53579 2.99371 2.40423 3.01025 2.27963 3.05175C2.15502 3.09324 2.03981 3.15888 1.94057 3.24491C1.84133 3.33094 1.76001 3.43567 1.70125 3.55313L0.10625 6.74375C0.0474726 6.8612 0.0124065 6.98908 0.0030543 7.12008C-0.00629789 7.25108 0.010247 7.38264 0.0517441 7.50725C0.0932412 7.63186 0.158878 7.74707 0.244905 7.84631C0.330933 7.94555 0.435667 8.02687 0.553125 8.08563L2.24062 8.93L5.70875 11.4069C5.75985 11.4432 5.8173 11.4697 5.87813 11.485L9.87812 12.485C9.96189 12.506 10.0497 12.505 10.1329 12.482C10.2162 12.459 10.292 12.4148 10.3531 12.3538L13.7956 8.91125L15.4469 8.08563C15.6839 7.96696 15.8642 7.75902 15.948 7.50751C16.0318 7.256 16.0123 6.98151 15.8937 6.74438ZM12.4631 8.83L10.3125 7.1075C10.2162 7.03035 10.0947 6.99155 9.97144 6.99859C9.84821 7.00563 9.73193 7.058 9.645 7.14563C8.53187 8.26688 7.29125 8.125 6.5 7.625L9.2025 5H11.1906L12.8912 8.40063L12.4631 8.83ZM9.84625 11.4463L6.21375 10.5381L3.13875 8.34188L4.88875 4.84188L8 4.0175L8.6125 4.17938L5.8 6.90938L5.795 6.915C5.68913 7.02087 5.60838 7.14917 5.55872 7.29042C5.50906 7.43166 5.49174 7.58226 5.50806 7.73109C5.52438 7.87993 5.57391 8.02319 5.65299 8.15033C5.73208 8.27746 5.8387 8.38521 5.965 8.46563C7.25 9.28625 8.80062 9.15313 10.0219 8.15313L11.75 9.54125L9.84625 11.4463Z" fill="#4B0EA3"/>
</svg>
