<svg width="16" height="16" viewBox="0 0 16 16" fill="none" xmlns="http://www.w3.org/2000/svg">
<path d="M13.3656 7.84046L6.36563 15.3405C6.29144 15.4196 6.19353 15.4725 6.08665 15.4912C5.97977 15.5098 5.86974 15.4932 5.77314 15.4438C5.67655 15.3944 5.59864 15.3149 5.55117 15.2174C5.5037 15.1198 5.48925 15.0095 5.51 14.903L6.42625 10.3198L2.82438 8.96734C2.74702 8.9384 2.67804 8.89076 2.62359 8.82866C2.56914 8.76656 2.53093 8.69194 2.51235 8.61146C2.49378 8.53099 2.49544 8.44716 2.51716 8.36748C2.53889 8.2878 2.58002 8.21475 2.63688 8.15484L9.63688 0.65484C9.71106 0.575674 9.80897 0.522784 9.91585 0.50415C10.0227 0.485516 10.1328 0.50215 10.2294 0.551541C10.326 0.600931 10.4039 0.6804 10.4513 0.777953C10.4988 0.875507 10.5132 0.985853 10.4925 1.09234L9.57375 5.68046L13.1756 7.03109C13.2524 7.06022 13.3208 7.10781 13.3749 7.16967C13.4289 7.23152 13.4668 7.30573 13.4854 7.38574C13.5039 7.46574 13.5025 7.54908 13.4811 7.62839C13.4598 7.7077 13.4193 7.78054 13.3631 7.84046H13.3656Z" fill="#727279"/>
</svg>
