<svg width="16" height="16" viewBox="0 0 16 16" fill="none" xmlns="http://www.w3.org/2000/svg">
<path d="M4.75 4C4.75 3.80109 4.82902 3.61032 4.96967 3.46967C5.11032 3.32902 5.30109 3.25 5.5 3.25H13.5C13.6989 3.25 13.8897 3.32902 14.0303 3.46967C14.171 3.61032 14.25 3.80109 14.25 4C14.25 4.19891 14.171 4.38968 14.0303 4.53033C13.8897 4.67098 13.6989 4.75 13.5 4.75H5.5C5.30109 4.75 5.11032 4.67098 4.96967 4.53033C4.82902 4.38968 4.75 4.19891 4.75 4ZM13.5 7.25H5.5C5.30109 7.25 5.11032 7.32902 4.96967 7.46967C4.82902 7.61032 4.75 7.80109 4.75 8C4.75 8.19891 4.82902 8.38968 4.96967 8.53033C5.11032 8.67098 5.30109 8.75 5.5 8.75H13.5C13.6989 8.75 13.8897 8.67098 14.0303 8.53033C14.171 8.38968 14.25 8.19891 14.25 8C14.25 7.80109 14.171 7.61032 14.0303 7.46967C13.8897 7.32902 13.6989 7.25 13.5 7.25ZM13.5 11.25H5.5C5.30109 11.25 5.11032 11.329 4.96967 11.4697C4.82902 11.6103 4.75 11.8011 4.75 12C4.75 12.1989 4.82902 12.3897 4.96967 12.5303C5.11032 12.671 5.30109 12.75 5.5 12.75H13.5C13.6989 12.75 13.8897 12.671 14.0303 12.5303C14.171 12.3897 14.25 12.1989 14.25 12C14.25 11.8011 14.171 11.6103 14.0303 11.4697C13.8897 11.329 13.6989 11.25 13.5 11.25ZM2.75 7C2.55222 7 2.35888 7.05865 2.19443 7.16853C2.02998 7.27841 1.90181 7.43459 1.82612 7.61732C1.75043 7.80004 1.73063 8.00111 1.76921 8.19509C1.8078 8.38907 1.90304 8.56725 2.04289 8.70711C2.18275 8.84696 2.36093 8.9422 2.55491 8.98079C2.74889 9.01937 2.94996 8.99957 3.13268 8.92388C3.31541 8.84819 3.47159 8.72002 3.58147 8.55557C3.69135 8.39112 3.75 8.19778 3.75 8C3.75 7.73478 3.64464 7.48043 3.45711 7.29289C3.26957 7.10536 3.01522 7 2.75 7ZM2.75 3C2.55222 3 2.35888 3.05865 2.19443 3.16853C2.02998 3.27841 1.90181 3.43459 1.82612 3.61732C1.75043 3.80004 1.73063 4.00111 1.76921 4.19509C1.8078 4.38907 1.90304 4.56725 2.04289 4.70711C2.18275 4.84696 2.36093 4.9422 2.55491 4.98079C2.74889 5.01937 2.94996 4.99957 3.13268 4.92388C3.31541 4.84819 3.47159 4.72002 3.58147 4.55557C3.69135 4.39112 3.75 4.19778 3.75 4C3.75 3.73478 3.64464 3.48043 3.45711 3.29289C3.26957 3.10536 3.01522 3 2.75 3ZM2.75 11C2.55222 11 2.35888 11.0586 2.19443 11.1685C2.02998 11.2784 1.90181 11.4346 1.82612 11.6173C1.75043 11.8 1.73063 12.0011 1.76921 12.1951C1.8078 12.3891 1.90304 12.5673 2.04289 12.7071C2.18275 12.847 2.36093 12.9422 2.55491 12.9808C2.74889 13.0194 2.94996 12.9996 3.13268 12.9239C3.31541 12.8482 3.47159 12.72 3.58147 12.5556C3.69135 12.3911 3.75 12.1978 3.75 12C3.75 11.7348 3.64464 11.4804 3.45711 11.2929C3.26957 11.1054 3.01522 11 2.75 11Z" fill="#727279"/>
</svg>
