<svg width="20" height="20" viewBox="0 0 20 20" fill="none" xmlns="http://www.w3.org/2000/svg">
<path d="M10.2083 5.41666C9.59024 5.41666 8.98606 5.59993 8.47215 5.94331C7.95825 6.28669 7.55771 6.77475 7.32119 7.34577C7.08466 7.91679 7.02278 8.54512 7.14336 9.15131C7.26394 9.7575 7.56156 10.3143 7.9986 10.7514C8.43564 11.1884 8.99246 11.486 9.59865 11.6066C10.2048 11.7272 10.8332 11.6653 11.4042 11.4288C11.9752 11.1923 12.4633 10.7917 12.8067 10.2778C13.15 9.76391 13.3333 9.15972 13.3333 8.54165C13.3333 7.71285 13.0041 6.918 12.418 6.33195C11.832 5.7459 11.0371 5.41666 10.2083 5.41666ZM10.2083 10.4167C9.83747 10.4167 9.47496 10.3067 9.16662 10.1007C8.85827 9.89463 8.61795 9.6018 8.47604 9.25919C8.33412 8.91657 8.29699 8.53957 8.36934 8.17586C8.44169 7.81215 8.62026 7.47805 8.88249 7.21583C9.14471 6.95361 9.4788 6.77503 9.84252 6.70268C10.2062 6.63033 10.5832 6.66747 10.9258 6.80938C11.2685 6.95129 11.5613 7.19162 11.7673 7.49996C11.9733 7.8083 12.0833 8.17081 12.0833 8.54165C12.0833 9.03893 11.8858 9.51585 11.5341 9.86748C11.1825 10.2191 10.7056 10.4167 10.2083 10.4167ZM10.2083 1.66666C8.38558 1.66872 6.6381 2.39372 5.34924 3.68258C4.06037 4.97144 3.33538 6.71893 3.33331 8.54165C3.33331 10.9948 4.46691 13.5948 6.61456 16.0612C7.57958 17.1757 8.6657 18.1793 9.85284 19.0534C9.95793 19.127 10.0831 19.1665 10.2114 19.1665C10.3397 19.1665 10.4649 19.127 10.57 19.0534C11.755 18.1789 12.839 17.1753 13.8021 16.0612C15.9466 13.5948 17.0833 10.9948 17.0833 8.54165C17.0812 6.71893 16.3562 4.97144 15.0674 3.68258C13.7785 2.39372 12.031 1.66872 10.2083 1.66666ZM10.2083 17.7604C8.9169 16.7448 4.58331 13.0143 4.58331 8.54165C4.58331 7.04981 5.17594 5.61907 6.23084 4.56418C7.28573 3.50929 8.71647 2.91666 10.2083 2.91666C11.7002 2.91666 13.1309 3.50929 14.1858 4.56418C15.2407 5.61907 15.8333 7.04981 15.8333 8.54165C15.8333 13.0127 11.4997 16.7448 10.2083 17.7604Z" fill="#727279"/>
</svg>
