<svg width="20" height="20" viewBox="0 0 20 20" fill="none" xmlns="http://www.w3.org/2000/svg">
<path d="M16.2757 5.02535L5.02568 16.2754C4.90841 16.3926 4.74935 16.4585 4.5835 16.4585C4.41764 16.4585 4.25858 16.3926 4.14131 16.2754C4.02403 16.1581 3.95815 15.999 3.95815 15.8332C3.95815 15.6673 4.02403 15.5083 4.14131 15.391L15.3913 4.14098C15.5085 4.0237 15.6674 3.95778 15.8332 3.9577C15.999 3.95763 16.158 4.02342 16.2753 4.14059C16.3926 4.25776 16.4585 4.41672 16.4586 4.5825C16.4586 4.74828 16.3929 4.9073 16.2757 5.02457V5.02535ZM4.15693 8.13473C3.6295 7.6072 3.33324 6.89175 3.33331 6.14578C3.33339 5.39981 3.62979 4.68442 4.15732 4.15699C4.68486 3.62957 5.4003 3.3333 6.14627 3.33337C6.89224 3.33345 7.60763 3.62985 8.13506 4.15738C8.66249 4.68492 8.95875 5.40036 8.95868 6.14633C8.95861 6.8923 8.6622 7.60769 8.13467 8.13512C7.60714 8.66255 6.89169 8.95881 6.14572 8.95874C5.39975 8.95867 4.68436 8.66226 4.15693 8.13473ZM4.5835 6.14723C4.5837 6.40414 4.64725 6.65704 4.76851 6.88353C4.88978 7.11002 5.06503 7.30312 5.27873 7.44572C5.49244 7.58831 5.73801 7.67602 5.9937 7.70106C6.24939 7.7261 6.5073 7.68771 6.74461 7.58928C6.98193 7.49085 7.1913 7.33543 7.35421 7.13677C7.51712 6.93811 7.62852 6.70235 7.67857 6.45035C7.72861 6.19836 7.71574 5.93792 7.64111 5.69209C7.56648 5.44625 7.43238 5.22262 7.25068 5.04098C7.03207 4.82243 6.75355 4.67364 6.45035 4.61343C6.14715 4.55322 5.83291 4.58429 5.54738 4.70272C5.26184 4.82115 5.01785 5.02161 4.84628 5.27874C4.6747 5.53587 4.58325 5.83811 4.5835 6.14723ZM17.0835 14.2722C17.0833 14.9229 16.8576 15.5534 16.4447 16.0563C16.0318 16.5592 15.4573 16.9034 14.8191 17.0302C14.1809 17.157 13.5185 17.0586 12.9447 16.7517C12.3709 16.4449 11.9213 15.9486 11.6724 15.3474C11.4235 14.7462 11.3908 14.0773 11.5798 13.4546C11.7688 12.832 12.1678 12.2942 12.7089 11.9328C13.25 11.5714 13.8996 11.4088 14.5472 11.4727C15.1947 11.5366 15.8 11.823 16.2601 12.2832C16.522 12.5438 16.7297 12.8538 16.8711 13.1952C17.0124 13.5366 17.0846 13.9027 17.0835 14.2722ZM15.8335 14.2722C15.8336 13.9107 15.7083 13.5604 15.479 13.2809C15.2498 13.0014 14.9307 12.8101 14.5761 12.7395C14.2216 12.6689 13.8535 12.7234 13.5347 12.8938C13.2159 13.0641 12.9659 13.3397 12.8275 13.6737C12.6891 14.0076 12.6708 14.3793 12.7757 14.7252C12.8806 15.0712 13.1022 15.37 13.4027 15.5709C13.7032 15.7718 14.0641 15.8623 14.4239 15.8269C14.7837 15.7915 15.12 15.6325 15.3757 15.3769C15.5212 15.2322 15.6366 15.06 15.7152 14.8704C15.7938 14.6808 15.834 14.4775 15.8335 14.2722Z" fill="#727279"/>
</svg>
