<svg width="16" height="16" viewBox="0 0 16 16" fill="none" xmlns="http://www.w3.org/2000/svg">
<path d="M13 3.5H11.2675L10.4156 2.2225C10.37 2.15409 10.3082 2.098 10.2357 2.05919C10.1632 2.02038 10.0822 2.00005 10 2H6C5.91777 2.00005 5.83682 2.02038 5.76432 2.05919C5.69182 2.098 5.63001 2.15409 5.58437 2.2225L4.73187 3.5H3C2.60218 3.5 2.22064 3.65804 1.93934 3.93934C1.65804 4.22064 1.5 4.60218 1.5 5V12C1.5 12.3978 1.65804 12.7794 1.93934 13.0607C2.22064 13.342 2.60218 13.5 3 13.5H13C13.3978 13.5 13.7794 13.342 14.0607 13.0607C14.342 12.7794 14.5 12.3978 14.5 12V5C14.5 4.60218 14.342 4.22064 14.0607 3.93934C13.7794 3.65804 13.3978 3.5 13 3.5ZM10.25 8.25C10.25 8.69501 10.118 9.13002 9.87081 9.50003C9.62357 9.87004 9.27217 10.1584 8.86104 10.3287C8.4499 10.499 7.9975 10.5436 7.56105 10.4568C7.12459 10.37 6.72368 10.1557 6.40901 9.84099C6.09434 9.52632 5.88005 9.12541 5.79323 8.68895C5.70642 8.2525 5.75097 7.8001 5.92127 7.38896C6.09157 6.97783 6.37996 6.62643 6.74997 6.37919C7.11998 6.13196 7.55499 6 8 6C8.59674 6 9.16903 6.23705 9.59099 6.65901C10.0129 7.08097 10.25 7.65326 10.25 8.25Z" fill="#727279"/>
</svg>
