<svg width="16" height="16" viewBox="0 0 16 16" fill="none" xmlns="http://www.w3.org/2000/svg">
<rect width="16" height="16" rx="8" fill="#222222" fill-opacity="0.1"/>
<path d="M11 6.125C11 7.46141 9.85297 8.56766 8.375 8.72938V9.125C8.375 9.22446 8.33549 9.31984 8.26517 9.39017C8.19484 9.46049 8.09946 9.5 8 9.5C7.90054 9.5 7.80516 9.46049 7.73484 9.39017C7.66451 9.31984 7.625 9.22446 7.625 9.125V8.375C7.625 8.27554 7.66451 8.18016 7.73484 8.10984C7.80516 8.03951 7.90054 8 8 8C9.24078 8 10.25 7.15906 10.25 6.125C10.25 5.09094 9.24078 4.25 8 4.25C6.75922 4.25 5.75 5.09094 5.75 6.125C5.75 6.22446 5.71049 6.31984 5.64017 6.39017C5.56984 6.46049 5.47446 6.5 5.375 6.5C5.27554 6.5 5.18016 6.46049 5.10984 6.39017C5.03951 6.31984 5 6.22446 5 6.125C5 4.6775 6.34578 3.5 8 3.5C9.65422 3.5 11 4.6775 11 6.125ZM8 10.625C7.85166 10.625 7.70666 10.669 7.58332 10.7514C7.45999 10.8338 7.36386 10.9509 7.30709 11.088C7.25032 11.225 7.23547 11.3758 7.26441 11.5213C7.29335 11.6668 7.36478 11.8004 7.46967 11.9053C7.57456 12.0102 7.7082 12.0817 7.85368 12.1106C7.99917 12.1395 8.14997 12.1247 8.28701 12.0679C8.42406 12.0111 8.54119 11.915 8.6236 11.7917C8.70601 11.6683 8.75 11.5233 8.75 11.375C8.75 11.1761 8.67098 10.9853 8.53033 10.8447C8.38968 10.704 8.19891 10.625 8 10.625Z" fill="#222222" fill-opacity="0.6"/>
</svg>
