<svg width="20" height="20" viewBox="0 0 20 20" fill="none" xmlns="http://www.w3.org/2000/svg">
<path d="M17.1844 10.5882L15.8719 9.41323C15.3844 9.03823 14.6844 8.78198 13.9031 8.68198L12.7719 7.73823C12.3906 7.41948 11.8781 7.18823 11.3031 7.05073L9.7469 5.66323C9.14065 5.15698 8.2219 4.85698 7.22815 4.83198L4.4219 4.80073L3.86565 5.76323L5.5969 5.78198L2.7344 10.707L0.321899 14.6882H12.2344C15.0344 14.6882 17.6094 13.3695 18.7969 11.3257L19.2156 10.607L17.1906 10.5882H17.1844ZM7.2094 5.80073C7.9719 5.81948 8.69065 6.04448 9.12815 6.40698L9.7094 6.89448L6.9469 6.86948L6.39065 7.83198L10.2281 7.86948C10.9969 7.88823 11.7094 8.11948 12.1469 8.48198L12.3156 8.62573L8.30315 8.61323L7.74065 9.58198L13.3406 9.59448C14.1156 9.61948 14.8344 9.84448 15.2406 10.157L15.7094 10.5757L3.97815 10.482L6.70315 5.79448H7.20315L7.2094 5.80073ZM12.2344 13.7195H2.04065L3.31565 11.6195H3.3219L3.4219 11.4507L17.4406 11.5632C16.2844 12.8945 14.3406 13.7195 12.2344 13.7195Z" fill="#727279"/>
<path d="M7.22945 4.70714H7.23108C8.18176 4.73106 9.07529 5.00097 9.70504 5.47049L9.82711 5.56733L9.83036 5.56977L11.3636 6.93696C11.9393 7.07853 12.4592 7.31413 12.852 7.64253L13.9563 8.56375C14.7378 8.66901 15.4459 8.92821 15.9477 9.31408L15.9559 9.31977L17.2319 10.4632L19.2168 10.4819L19.4316 10.4843L18.9051 11.3885C17.6907 13.4785 15.0691 14.8129 12.2343 14.8129H0.0997314L0.215291 14.6233L2.6274 10.6422L5.38049 5.90425L3.65035 5.88553L3.75777 5.7008L4.35022 4.67459L7.22945 4.70714ZM4.08085 5.63976L5.81262 5.65929L5.7052 5.84484L2.84224 10.77L2.84143 10.7716L0.543254 14.5631H12.2343C14.9995 14.5631 17.5279 13.2605 18.6886 11.2631L18.9987 10.7293L17.1896 10.713H17.1367L17.1009 10.6813L15.7955 9.51264L15.6116 9.38325C15.1599 9.09422 14.5575 8.89207 13.8872 8.80626L13.8514 8.80138L13.8229 8.77778L12.6917 7.83458C12.3291 7.53152 11.8357 7.30646 11.274 7.17215L11.2431 7.16483L11.2203 7.14367L9.66679 5.75939L9.55448 5.67068C8.97609 5.23987 8.13785 4.98 7.22538 4.95698L4.49264 4.92606L4.08085 5.63976ZM3.4233 11.3258L17.7129 11.4405L17.5346 11.6448C16.3508 13.0078 14.3706 13.8445 12.2343 13.8445H1.81848L1.93404 13.6549L3.24508 11.4943H3.25077L3.35087 11.325L3.4233 11.3258ZM3.42981 11.6831L3.39319 11.7441H3.38668L2.26282 13.5947H12.2343C14.1987 13.5947 16.0098 12.8645 17.1554 11.6855L3.49247 11.5756L3.42981 11.6831ZM7.25468 5.66987L7.26282 5.67801C8.02495 5.70564 8.75207 5.93286 9.2078 6.31033L9.20862 6.31115L10.0566 7.02241L7.01868 6.99474L6.60608 7.70845L10.2291 7.74425H10.2316C10.9699 7.76233 11.6682 7.972 12.1359 8.31554L12.227 8.38553L12.2278 8.38716L12.3971 8.53039L12.6567 8.75174L8.37447 8.73791L7.95699 9.45731L13.3411 9.46951H13.3444L13.639 9.48823C14.2212 9.54444 14.7596 9.7087 15.1404 9.93826L15.317 10.0579L15.3243 10.0636L15.7923 10.4827L16.0397 10.7032L3.76184 10.6056L6.59469 5.73172L6.63131 5.66987H7.25468ZM4.19397 10.359L15.3789 10.4477L15.1648 10.2565L15.0086 10.1507C14.6123 9.91271 14.0003 9.74077 13.3362 9.71935L7.74052 9.70714L7.52405 9.70633L7.63228 9.51916L8.19543 8.55073L8.23124 8.48807H8.30367L11.9601 8.49946C11.5441 8.20519 10.9136 8.01088 10.2251 7.99409L6.38961 7.95666L6.17558 7.95503L6.28219 7.76948L6.83883 6.80675L6.87545 6.74409H6.94788L9.36161 6.76606L9.0483 6.5032C8.6391 6.1642 7.95098 5.94377 7.20667 5.9254L7.15621 5.92459L7.15133 5.91971H6.77454L4.19397 10.359Z" fill="#727279"/>
</svg>
