<svg width="20" height="20" viewBox="0 0 20 20" fill="none" xmlns="http://www.w3.org/2000/svg">
<g clip-path="url(#clip0_2039_289)">
<path d="M5.83326 9.30845L9.16659 7.59178C9.42386 7.45805 9.70998 7.38938 9.99992 7.39178C10.3103 7.39041 10.6164 7.46478 10.8916 7.60845L14.2249 9.27512L15.5916 9.98345L15.1333 6.80845C15.0108 6.30733 14.7156 5.86546 14.2994 5.5606C13.8833 5.25574 13.373 5.10743 12.8583 5.14178H12.0249V3.99178C11.9956 3.74704 11.8722 3.5233 11.681 3.3678C11.4897 3.2123 11.2455 3.13724 10.9999 3.15845H9.00826C8.76268 3.13724 8.51847 3.2123 8.32721 3.3678C8.13595 3.5233 8.01261 3.74704 7.98326 3.99178V5.15845H7.14992C6.63521 5.1241 6.12488 5.2724 5.70874 5.57726C5.29261 5.88212 4.99735 6.324 4.87492 6.82512L4.43326 10.0001L5.26659 9.56678L5.83326 9.30845ZM9.26659 4.37512H10.7999V5.11678H9.23326L9.26659 4.37512Z" fill="white"/>
<path d="M3.52492 14.1668C3.82069 14.2843 4.10063 14.4383 4.35826 14.6251C4.61659 14.7918 4.63326 14.8084 4.84159 14.8084C4.97317 14.8206 5.10438 14.7818 5.20826 14.7001L5.31659 14.6251C5.50886 14.4887 5.71237 14.3688 5.92492 14.2668C6.391 14.0474 6.90158 13.939 7.41659 13.9501C8.16894 13.9398 8.90383 14.177 9.50826 14.6251C9.75826 14.7918 9.78326 14.8084 9.98326 14.8084C10.1833 14.8084 10.1999 14.8084 10.4583 14.6251C11.0609 14.1736 11.797 13.9361 12.5499 13.9501C13.0094 13.9428 13.4656 14.0278 13.8916 14.2001L14.0249 14.2584C14.241 14.362 14.4474 14.4847 14.6416 14.6251L14.7416 14.6918C14.8464 14.7785 14.9811 14.8204 15.1166 14.8084C15.3166 14.8084 15.3416 14.8084 15.5916 14.6251C15.8492 14.4383 16.1292 14.2843 16.4249 14.1668L17.0749 12.9751C17.1444 12.8491 17.1882 12.7106 17.2039 12.5676C17.2197 12.4246 17.207 12.2799 17.1666 12.1418C17.1246 12.0125 17.0572 11.8929 16.9685 11.7899C16.8798 11.6869 16.7715 11.6025 16.6499 11.5418L15.6666 11.0334L14.2916 10.3251L10.4916 8.33345C10.3427 8.25933 10.1787 8.22075 10.0124 8.22075C9.84613 8.22075 9.68211 8.25933 9.53326 8.33345L5.65826 10.3251L4.29159 11.0334L3.33326 11.5334C3.20789 11.5965 3.09669 11.6845 3.00643 11.7919C2.91617 11.8994 2.84874 12.0241 2.80826 12.1584C2.73332 12.4205 2.7632 12.7014 2.89159 12.9418L3.52492 14.1668Z" fill="white"/>
<path d="M17.7083 14.7668C17.108 14.748 16.5195 14.9363 16.0416 15.3001C15.937 15.3771 15.8254 15.444 15.7083 15.5001C15.5222 15.5923 15.3156 15.6353 15.1083 15.6251C14.8428 15.6344 14.5809 15.5617 14.3583 15.4168L14.1749 15.3001C13.7009 14.9534 13.1289 14.7665 12.5416 14.7665C11.9543 14.7665 11.3823 14.9534 10.9083 15.3001C10.641 15.5103 10.3108 15.6246 9.97076 15.6246C9.63072 15.6246 9.30055 15.5103 9.03326 15.3001C8.55666 14.9339 7.96727 14.7453 7.36659 14.7668C6.766 14.746 6.17684 14.9345 5.69992 15.3001L5.50826 15.4251C5.28303 15.5633 5.02239 15.6328 4.75826 15.6251C4.54844 15.6322 4.33993 15.5894 4.14992 15.5001C4.03195 15.449 3.92013 15.3847 3.81659 15.3084C3.3387 14.9447 2.75022 14.7564 2.14992 14.7751C1.98416 14.7751 1.82519 14.841 1.70798 14.9582C1.59077 15.0754 1.52492 15.2344 1.52492 15.4001C1.52492 15.5659 1.59077 15.7248 1.70798 15.8421C1.82519 15.9593 1.98416 16.0251 2.14992 16.0251C2.49281 16.0159 2.8274 16.1314 3.09159 16.3501C3.57134 16.7103 4.15852 16.8982 4.75826 16.8834C5.35799 16.8982 5.94517 16.7103 6.42492 16.3501C6.68835 16.13 7.02347 16.0143 7.36659 16.0251C7.70698 16.0156 8.03905 16.1312 8.29992 16.3501C8.77967 16.7103 9.36686 16.8982 9.96659 16.8834C10.5669 16.9022 11.1554 16.7139 11.6333 16.3501C11.8982 16.1327 12.2323 16.0174 12.5749 16.0251C12.9153 16.0156 13.2474 16.1312 13.5083 16.3501C13.9823 16.6968 14.5543 16.8837 15.1416 16.8837C15.7289 16.8837 16.3009 16.6968 16.7749 16.3501C17.0358 16.1312 17.3679 16.0156 17.7083 16.0251C17.874 16.0251 18.033 15.9593 18.1502 15.8421C18.2674 15.7248 18.3333 15.5659 18.3333 15.4001C18.3333 15.2344 18.2674 15.0754 18.1502 14.9582C18.033 14.841 17.874 14.7751 17.7083 14.7751V14.7668Z" fill="white"/>
</g>
<defs>
<clipPath id="clip0_2039_289">
<rect width="20" height="20" fill="white"/>
</clipPath>
</defs>
</svg>
