<svg width="16" height="16" viewBox="0 0 16 16" fill="none" xmlns="http://www.w3.org/2000/svg">
<path fill-rule="evenodd" clip-rule="evenodd" d="M6.09524 3.23826C6.19871 3.23828 6.29937 3.27201 6.38197 3.33433C6.46457 3.39665 6.52463 3.48419 6.55305 3.58368L7.06928 5.39082C7.18044 5.78 7.38896 6.13443 7.67516 6.42063C7.96136 6.70683 8.31579 6.91535 8.70497 7.0265L10.5121 7.54274C10.6115 7.57122 10.699 7.6313 10.7613 7.7139C10.8235 7.7965 10.8572 7.89712 10.8572 8.00055C10.8572 8.10398 10.8235 8.20461 10.7613 8.2872C10.699 8.3698 10.6115 8.42988 10.5121 8.45837L8.70497 8.9746C8.31579 9.08575 7.96136 9.29427 7.67516 9.58047C7.38896 9.86667 7.18044 10.2211 7.06928 10.6103L6.55305 12.4174C6.52457 12.5169 6.46448 12.6043 6.38189 12.6666C6.29929 12.7288 6.19867 12.7625 6.09524 12.7625C5.9918 12.7625 5.89118 12.7288 5.80859 12.6666C5.72599 12.6043 5.66591 12.5169 5.63742 12.4174L5.12119 10.6103C5.01004 10.2211 4.80152 9.86667 4.51532 9.58047C4.22912 9.29427 3.87469 9.08575 3.4855 8.9746L1.67837 8.45837C1.57894 8.42988 1.49148 8.3698 1.42922 8.2872C1.36696 8.20461 1.33329 8.10398 1.33329 8.00055C1.33329 7.89712 1.36696 7.7965 1.42922 7.7139C1.49148 7.6313 1.57894 7.57122 1.67837 7.54274L3.4855 7.0265C3.87469 6.91535 4.22912 6.70683 4.51532 6.42063C4.80152 6.13443 5.01004 5.78 5.12119 5.39082L5.63742 3.58368C5.66584 3.48419 5.7259 3.39665 5.8085 3.33433C5.8911 3.27201 5.99176 3.23828 6.09524 3.23826ZM11.81 1.33334C11.9162 1.33328 12.0194 1.36875 12.1032 1.4341C12.187 1.49946 12.2465 1.59094 12.2722 1.69401L12.4361 2.35184C12.5859 2.94871 13.052 3.41478 13.6489 3.56464L14.3067 3.72846C14.41 3.75404 14.5017 3.81345 14.5672 3.89723C14.6328 3.98101 14.6684 4.08433 14.6684 4.19072C14.6684 4.2971 14.6328 4.40042 14.5672 4.4842C14.5017 4.56798 14.41 4.6274 14.3067 4.65298L13.6489 4.8168C13.052 4.96665 12.5859 5.43272 12.4361 6.0296L12.2722 6.68743C12.2467 6.79069 12.1873 6.88242 12.1035 6.94798C12.0197 7.01354 11.9164 7.04916 11.81 7.04916C11.7036 7.04916 11.6003 7.01354 11.5165 6.94798C11.4327 6.88242 11.3733 6.79069 11.3477 6.68743L11.1839 6.0296C11.1106 5.73651 10.9591 5.46885 10.7455 5.25523C10.5319 5.04161 10.2642 4.89007 9.97111 4.8168L9.31328 4.65298C9.21001 4.6274 9.11829 4.56798 9.05273 4.4842C8.98717 4.40042 8.95155 4.2971 8.95155 4.19072C8.95155 4.08433 8.98717 3.98101 9.05273 3.89723C9.11829 3.81345 9.21001 3.75404 9.31328 3.72846L9.97111 3.56464C10.2642 3.49137 10.5319 3.33982 10.7455 3.1262C10.9591 2.91258 11.1106 2.64492 11.1839 2.35184L11.3477 1.69401C11.3735 1.59094 11.433 1.49946 11.5168 1.4341C11.6005 1.36875 11.7037 1.33328 11.81 1.33334ZM10.8575 9.90547C10.9575 9.90541 11.055 9.93684 11.1362 9.99531C11.2173 10.0538 11.278 10.1363 11.3096 10.2312L11.5598 10.9824C11.6551 11.2662 11.8773 11.4897 12.1618 11.5843L12.9129 11.8351C13.0075 11.8669 13.0897 11.9276 13.148 12.0086C13.2063 12.0896 13.2376 12.1868 13.2376 12.2866C13.2376 12.3864 13.2063 12.4836 13.148 12.5647C13.0897 12.6457 13.0075 12.7063 12.9129 12.7381L12.1618 12.9889C11.8779 13.0841 11.6544 13.3064 11.5598 13.5908L11.309 14.342C11.2772 14.4366 11.2166 14.5188 11.1356 14.5771C11.0546 14.6353 10.9573 14.6667 10.8575 14.6667C10.7578 14.6667 10.6605 14.6353 10.5795 14.5771C10.4985 14.5188 10.4378 14.4366 10.4061 14.342L10.1552 13.5908C10.1085 13.4507 10.0297 13.3233 9.92527 13.2189C9.82079 13.1144 9.69344 13.0357 9.5533 12.9889L8.80212 12.7381C8.70753 12.7063 8.62531 12.6457 8.56706 12.5647C8.5088 12.4836 8.47746 12.3864 8.47746 12.2866C8.47746 12.1868 8.5088 12.0896 8.56706 12.0086C8.62531 11.9276 8.70753 11.8669 8.80212 11.8351L9.5533 11.5843C9.83713 11.4891 10.0606 11.2668 10.1552 10.9824L10.4061 10.2312C10.4376 10.1364 10.4982 10.054 10.5792 9.9955C10.6603 9.93704 10.7576 9.90554 10.8575 9.90547Z" fill="#727279"/>
</svg>
