<svg width="16" height="16" viewBox="0 0 16 16" fill="none" xmlns="http://www.w3.org/2000/svg">
<path d="M11.6667 4.5V11.5C11.6667 11.7652 11.5613 12.0196 11.3738 12.2071C11.1862 12.3946 10.9319 12.5 10.6667 12.5H1.66667C1.40145 12.5 1.1471 12.3946 0.95956 12.2071C0.772024 12.0196 0.666667 11.7652 0.666667 11.5V4.5C0.666667 4.23478 0.772024 3.98043 0.95956 3.79289C1.1471 3.60536 1.40145 3.5 1.66667 3.5H10.6667C10.9319 3.5 11.1862 3.60536 11.3738 3.79289C11.5613 3.98043 11.6667 4.23478 11.6667 4.5ZM15.2917 4.51562C15.2211 4.49836 15.1477 4.49623 15.0763 4.50938C15.0049 4.52252 14.9371 4.55063 14.8773 4.59188L12.7779 5.99125C12.7437 6.0141 12.7156 6.04505 12.6962 6.08136C12.6768 6.11767 12.6666 6.15821 12.6667 6.19938V9.80062C12.6666 9.84179 12.6768 9.88233 12.6962 9.91864C12.7156 9.95495 12.7437 9.9859 12.7779 10.0087L14.8892 11.4163C14.9682 11.469 15.0606 11.4981 15.1556 11.5002C15.2505 11.5023 15.3441 11.4773 15.4254 11.4281C15.5006 11.3803 15.5623 11.314 15.6045 11.2356C15.6468 11.1571 15.6682 11.0691 15.6667 10.98V5C15.6667 4.88911 15.6299 4.78135 15.562 4.69366C15.4941 4.60598 15.399 4.54335 15.2917 4.51562Z" fill="#727279"/>
</svg>
