<svg preserveAspectRatio="none" width="100%" height="100%" overflow="visible" style="display: block;" viewBox="0 0 77.1292 25.9756" fill="none" xmlns="http://www.w3.org/2000/svg">
<path id="Subtract" d="M76.3008 0.00587262C77.2373 0.00583561 77.125 -0.124666 77.125 0.846693V25.1377C77.125 25.9729 77.1242 25.9756 76.2588 25.9756H0V24.8506C14.8852 24.8411 34.1568 24.8414 48.7236 24.8516C49.2052 24.8516 49.6874 24.8359 50.1689 24.8516C50.5372 24.8672 50.6952 24.7179 50.6768 24.3565V24.0293C50.6768 16.6521 50.6766 9.27434 50.6924 1.89454C50.6923 1.24026 50.5291 1.0542 49.8535 1.05665C34.9091 1.07525 15.2484 1.07502 0 1.05763V0.00782574L39.8906 0.00587262H76.3008ZM63.249 5.38087C59.243 5.54332 56.2266 9.4867 57.3135 13.3193C58.5218 17.6102 63.2415 19.4278 67.0527 17.0518C67.4495 16.8062 67.6581 16.8975 67.9395 17.1826C69.0581 18.317 70.2162 19.4154 71.3164 20.5654C71.727 20.9897 71.9802 20.8117 72.2539 20.5C72.5277 20.1885 72.9798 19.9833 72.4326 19.4727C71.2851 18.3986 70.2057 17.2541 69.0713 16.167C68.7186 15.8265 68.6267 15.5899 68.9346 15.1367C69.6238 14.1257 69.9453 12.9753 69.9453 11.2442C69.974 8.23689 66.9863 5.22921 63.249 5.38087ZM61.6768 7.24806C62.5668 6.88192 63.5467 6.7862 64.4912 6.97365C65.4356 7.16118 66.3036 7.62289 66.9844 8.30079C67.6652 8.97876 68.1285 9.84314 68.3164 10.7832C68.5042 11.7232 68.4083 12.6984 68.04 13.584C67.6716 14.4696 67.0466 15.2279 66.2461 15.7608C65.4456 16.2934 64.5039 16.5775 63.541 16.5781C62.8998 16.5813 62.2639 16.4577 61.6709 16.2149C61.078 15.972 60.5392 15.6145 60.0859 15.1631C59.6327 14.7117 59.274 14.1753 59.0303 13.585C58.7866 12.9947 58.6625 12.3618 58.666 11.7236C58.6672 10.7652 58.9535 9.82776 59.4893 9.03126C60.0251 8.23485 60.7868 7.61429 61.6768 7.24806Z" fill="var(--fill-0, white)"/>
</svg>
